<svg xmlns="http://www.w3.org/2000/svg" viewBox="0 0 1200 330" width="1200" height="330" role="img" aria-label="Neural activity log">
<defs>
<style>
.hd{font-family:'IBM Plex Mono','SF Mono','Consolas',monospace;font-weight:600;font-size:17px;letter-spacing:-0.01em;fill:#F2F2F0}
.big{font-family:'IBM Plex Mono','SF Mono','Consolas',monospace;font-weight:600;font-size:34px;fill:#F2F2F0}
.m{font-family:'IBM Plex Mono','SF Mono','Consolas','DejaVu Sans Mono',monospace;font-weight:500;font-size:11px;letter-spacing:0.07em}
.v{font-family:'IBM Plex Sans','Segoe UI',Arial,sans-serif;font-size:14px;fill:#A9ABAE}
@keyframes dr{0%{stroke-dashoffset:2600}100%{stroke-dashoffset:0}}
@keyframes fi{0%{opacity:0}100%{opacity:.22}}
.ln{stroke-dasharray:2600;animation:dr 2.6s ease-out forwards}
.ar{animation:fi 2.6s ease-out forwards;opacity:0}
</style>
<linearGradient id="ag" x1="0" y1="0" x2="0" y2="1">
<stop offset="0" stop-color="#FF4D00" stop-opacity="0.42"/>
<stop offset="1" stop-color="#FF4D00" stop-opacity="0"/></linearGradient>
</defs>
<rect width="1200" height="330" fill="#0A0B0C"/>
<text class="m" x="28" y="42" fill="#7D8084"><tspan fill="#FF4D00">// </tspan>activity &#183; last 30 days</text>
<text class="m" x="1172" y="42" fill="#7D8084" text-anchor="end">peak 57/day</text>
<line x1="28" y1="60" x2="1172" y2="60" stroke="#1D1F22" stroke-width="1"/>
<line x1="70" y1="76.0" x2="1130" y2="76.0" stroke="#1D1F22" stroke-width="1"/>
<text class="m" x="58" y="80.0" fill="#7D8084" text-anchor="end">57</text>
<line x1="70" y1="124.0" x2="1130" y2="124.0" stroke="#1D1F22" stroke-width="1"/>
<text class="m" x="58" y="128.0" fill="#7D8084" text-anchor="end">43</text>
<line x1="70" y1="172.0" x2="1130" y2="172.0" stroke="#1D1F22" stroke-width="1"/>
<text class="m" x="58" y="176.0" fill="#7D8084" text-anchor="end">28</text>
<line x1="70" y1="220.0" x2="1130" y2="220.0" stroke="#1D1F22" stroke-width="1"/>
<text class="m" x="58" y="224.0" fill="#7D8084" text-anchor="end">14</text>
<line x1="70" y1="268.0" x2="1130" y2="268.0" stroke="#1D1F22" stroke-width="1"/>
<text class="m" x="58" y="272.0" fill="#7D8084" text-anchor="end">0</text>
<path d="M70.0,244.4 L106.6,244.4 L143.1,230.9 L179.7,244.4 L216.2,214.1 L252.8,230.9 L289.3,227.6 L325.9,224.2 L362.4,227.6 L399.0,220.8 L435.5,224.2 L472.1,214.1 L508.6,193.9 L545.2,163.6 L581.7,200.6 L618.3,220.8 L654.8,230.9 L691.4,247.8 L727.9,214.1 L764.5,227.6 L801.0,237.7 L837.6,150.1 L874.1,220.8 L910.7,214.1 L947.2,160.2 L983.8,76.0 L1020.3,106.3 L1056.9,150.1 L1093.4,237.7 L1130.0,268.0 L1130.0,268.0 L70.0,268.0 Z" fill="url(#ag)" class="ar"/>
<path d="M70.0,244.4 L106.6,244.4 L143.1,230.9 L179.7,244.4 L216.2,214.1 L252.8,230.9 L289.3,227.6 L325.9,224.2 L362.4,227.6 L399.0,220.8 L435.5,224.2 L472.1,214.1 L508.6,193.9 L545.2,163.6 L581.7,200.6 L618.3,220.8 L654.8,230.9 L691.4,247.8 L727.9,214.1 L764.5,227.6 L801.0,237.7 L837.6,150.1 L874.1,220.8 L910.7,214.1 L947.2,160.2 L983.8,76.0 L1020.3,106.3 L1056.9,150.1 L1093.4,237.7 L1130.0,268.0" fill="none" stroke="#FF4D00" stroke-width="2.5" class="ln"/>
<circle cx="983.8" cy="76.0" r="5" fill="#FF4D00"/>
<text class="m" x="70.0" y="292" fill="#7D8084" text-anchor="middle">08-27</text>
<text class="m" x="289.3" y="292" fill="#7D8084" text-anchor="middle">09-02</text>
<text class="m" x="508.6" y="292" fill="#7D8084" text-anchor="middle">09-08</text>
<text class="m" x="727.9" y="292" fill="#7D8084" text-anchor="middle">09-14</text>
<text class="m" x="947.2" y="292" fill="#7D8084" text-anchor="middle">09-20</text>
<text class="m" x="70" y="316" fill="#7D8084">DAYS</text>
</svg>
