<svg xmlns="http://www.w3.org/2000/svg" viewBox="0 0 1200 330" width="1200" height="330" role="img" aria-label="Neural activity log">
<defs>
<style>
.hd{font-family:'IBM Plex Mono','SF Mono','Consolas',monospace;font-weight:600;font-size:17px;letter-spacing:-0.01em;fill:#F2F2F0}
.big{font-family:'IBM Plex Mono','SF Mono','Consolas',monospace;font-weight:600;font-size:34px;fill:#F2F2F0}
.m{font-family:'IBM Plex Mono','SF Mono','Consolas','DejaVu Sans Mono',monospace;font-weight:500;font-size:11px;letter-spacing:0.07em}
.v{font-family:'IBM Plex Sans','Segoe UI',Arial,sans-serif;font-size:14px;fill:#A9ABAE}
@keyframes dr{0%{stroke-dashoffset:2600}100%{stroke-dashoffset:0}}
@keyframes fi{0%{opacity:0}100%{opacity:.22}}
.ln{stroke-dasharray:2600;animation:dr 2.6s ease-out forwards}
.ar{animation:fi 2.6s ease-out forwards;opacity:0}
</style>
<linearGradient id="ag" x1="0" y1="0" x2="0" y2="1">
<stop offset="0" stop-color="#FF4D00" stop-opacity="0.42"/>
<stop offset="1" stop-color="#FF4D00" stop-opacity="0"/></linearGradient>
</defs>
<rect width="1200" height="330" fill="#0A0B0C"/>
<text class="m" x="28" y="42" fill="#7D8084"><tspan fill="#FF4D00">// </tspan>activity &#183; last 30 days</text>
<text class="m" x="1172" y="42" fill="#7D8084" text-anchor="end">peak 16/day</text>
<line x1="28" y1="60" x2="1172" y2="60" stroke="#1D1F22" stroke-width="1"/>
<line x1="70" y1="76.0" x2="1130" y2="76.0" stroke="#1D1F22" stroke-width="1"/>
<text class="m" x="58" y="80.0" fill="#7D8084" text-anchor="end">16</text>
<line x1="70" y1="124.0" x2="1130" y2="124.0" stroke="#1D1F22" stroke-width="1"/>
<text class="m" x="58" y="128.0" fill="#7D8084" text-anchor="end">12</text>
<line x1="70" y1="172.0" x2="1130" y2="172.0" stroke="#1D1F22" stroke-width="1"/>
<text class="m" x="58" y="176.0" fill="#7D8084" text-anchor="end">8</text>
<line x1="70" y1="220.0" x2="1130" y2="220.0" stroke="#1D1F22" stroke-width="1"/>
<text class="m" x="58" y="224.0" fill="#7D8084" text-anchor="end">4</text>
<line x1="70" y1="268.0" x2="1130" y2="268.0" stroke="#1D1F22" stroke-width="1"/>
<text class="m" x="58" y="272.0" fill="#7D8084" text-anchor="end">0</text>
<path d="M70.0,268.0 L106.6,268.0 L143.1,76.0 L179.7,148.0 L216.2,196.0 L252.8,196.0 L289.3,100.0 L325.9,172.0 L362.4,112.0 L399.0,88.0 L435.5,124.0 L472.1,208.0 L508.6,172.0 L545.2,184.0 L581.7,208.0 L618.3,232.0 L654.8,232.0 L691.4,244.0 L727.9,220.0 L764.5,208.0 L801.0,232.0 L837.6,184.0 L874.1,208.0 L910.7,184.0 L947.2,184.0 L983.8,136.0 L1020.3,184.0 L1056.9,76.0 L1093.4,136.0 L1130.0,232.0 L1130.0,268.0 L70.0,268.0 Z" fill="url(#ag)" class="ar"/>
<path d="M70.0,268.0 L106.6,268.0 L143.1,76.0 L179.7,148.0 L216.2,196.0 L252.8,196.0 L289.3,100.0 L325.9,172.0 L362.4,112.0 L399.0,88.0 L435.5,124.0 L472.1,208.0 L508.6,172.0 L545.2,184.0 L581.7,208.0 L618.3,232.0 L654.8,232.0 L691.4,244.0 L727.9,220.0 L764.5,208.0 L801.0,232.0 L837.6,184.0 L874.1,208.0 L910.7,184.0 L947.2,184.0 L983.8,136.0 L1020.3,184.0 L1056.9,76.0 L1093.4,136.0 L1130.0,232.0" fill="none" stroke="#FF4D00" stroke-width="2.5" class="ln"/>
<circle cx="143.1" cy="76.0" r="5" fill="#FF4D00"/>
<circle cx="1056.9" cy="76.0" r="5" fill="#FF4D00"/>
<text class="m" x="70.0" y="292" fill="#7D8084" text-anchor="middle">08-04</text>
<text class="m" x="289.3" y="292" fill="#7D8084" text-anchor="middle">08-10</text>
<text class="m" x="508.6" y="292" fill="#7D8084" text-anchor="middle">08-16</text>
<text class="m" x="727.9" y="292" fill="#7D8084" text-anchor="middle">08-22</text>
<text class="m" x="947.2" y="292" fill="#7D8084" text-anchor="middle">08-28</text>
<text class="m" x="70" y="316" fill="#7D8084">DAYS</text>
</svg>
