<svg xmlns="http://www.w3.org/2000/svg" viewBox="0 0 1200 330" width="1200" height="330" role="img" aria-label="Data streams">
<defs>
<style>
.hd{font-family:'IBM Plex Mono','SF Mono','Consolas',monospace;font-weight:600;font-size:17px;letter-spacing:-0.01em;fill:#F2F2F0}
.big{font-family:'IBM Plex Mono','SF Mono','Consolas',monospace;font-weight:600;font-size:34px;fill:#F2F2F0}
.m{font-family:'IBM Plex Mono','SF Mono','Consolas','DejaVu Sans Mono',monospace;font-weight:500;font-size:11px;letter-spacing:0.07em}
.v{font-family:'IBM Plex Sans','Segoe UI',Arial,sans-serif;font-size:14px;fill:#A9ABAE}
@keyframes dr{0%{stroke-dashoffset:2600}100%{stroke-dashoffset:0}}
@keyframes fi{0%{opacity:0}100%{opacity:.22}}
.ln{stroke-dasharray:2600;animation:dr 2.6s ease-out forwards}
.ar{animation:fi 2.6s ease-out forwards;opacity:0}
</style>
<linearGradient id="ag" x1="0" y1="0" x2="0" y2="1">
<stop offset="0" stop-color="#FF4D00" stop-opacity="0.42"/>
<stop offset="1" stop-color="#FF4D00" stop-opacity="0"/></linearGradient>
</defs>
<rect width="1200" height="330" fill="#0A0B0C"/>
<rect x="0" y="0" width="1200" height="2" fill="#FF4D00"/>
<text class="m" x="28" y="42" fill="#7D8084"><tspan fill="#FF4D00">// </tspan>TELEMETRY // ROLLING 12 MONTHS</text>
<text class="m" x="1172" y="42" fill="#7D8084" text-anchor="end">25 CONTRIBUTIONS</text>
<line x1="28" y1="60" x2="1172" y2="60" stroke="#1D1F22" stroke-width="1"/>
<g transform="translate(62,92)">
<rect x="0" y="-34" width="3" height="52" fill="#26282B"/>
<text class="big" x="18" y="0">13</text>
<text class="m" x="20" y="20" fill="#7D8084">COMMITS</text>
</g>
<g transform="translate(452,92)">
<rect x="0" y="-34" width="3" height="52" fill="#26282B"/>
<text class="big" x="18" y="0">3</text>
<text class="m" x="20" y="20" fill="#7D8084">PULL REQUESTS</text>
</g>
<g transform="translate(842,92)">
<rect x="0" y="-34" width="3" height="52" fill="#26282B"/>
<text class="big" x="18" y="0">0</text>
<text class="m" x="20" y="20" fill="#7D8084">ISSUES</text>
</g>
<g transform="translate(62,200)">
<rect x="0" y="-34" width="3" height="52" fill="#26282B"/>
<text class="big" x="18" y="0">3</text>
<text class="m" x="20" y="20" fill="#7D8084">STARS EARNED</text>
</g>
<g transform="translate(452,200)">
<rect x="0" y="-34" width="3" height="52" fill="#26282B"/>
<text class="big" x="18" y="0">5</text>
<text class="m" x="20" y="20" fill="#7D8084">REPOSITORIES</text>
</g>
<g transform="translate(842,200)">
<rect x="0" y="-34" width="3" height="52" fill="#26282B"/>
<text class="big" x="18" y="0">0</text>
<text class="m" x="20" y="20" fill="#7D8084">FOLLOWERS</text>
</g>
<g transform="translate(62,290)">
<text class="m" x="0" y="0" fill="#7D8084">CURRENT STREAK</text>
<text class="m" x="180" y="0" fill="#F2F2F0">2 DAYS</text>
<text class="m" x="330" y="0" fill="#7D8084">LONGEST STREAK</text>
<text class="m" x="520" y="0" fill="#F2F2F0">2 DAYS</text>
<text class="m" x="670" y="0" fill="#7D8084">WINDOW START</text>
<text class="m" x="830" y="0" fill="#F2F2F0">2025-07-27</text>
</g>
</svg>
